<svg width="9842" height="2628" viewBox="0 0 9842 2628" fill="none" xmlns="http://www.w3.org/2000/svg">
<path d="M0 531C0 237.737 237.737 0 531 0H2046C2339.26 0 2577 237.737 2577 531V2097C2577 2390.26 2339.26 2628 2046 2628H531C237.737 2628 0 2390.26 0 2097V531Z" fill="url(#paint0_linear_3221_11)"/>
<path d="M986.918 2010.51L883.661 1909.25L1145.41 1580.59L1482.19 1149.6L1655.09 931.396L1363.93 798.741C1339.91 782.497 1344.72 752.176 1376.53 744.054L1579.45 691.534L2108.34 563.21C2163.36 553.071 2163.17 579.633 2162.98 605.914L2162.97 607.067L2131.75 813.901L2080.72 1132.27L2059.11 1255.72C2051.91 1279.01 2026.09 1292 1999.08 1269.26L1985.87 1251.39L1871.21 1083L1637.08 1328.82L1230.65 1756.57L986.918 2010.51Z" fill="white"/>
<path d="M942.247 2063.18C931.442 2071.3 914.032 2068.06 906.828 2061.56L891.219 2042.07L876.811 2023.66L421.096 1447.7C416.773 1442.23 413.048 1436.09 413.001 1429.38C412.839 1406.59 439.642 1404.12 452.376 1415.61L962.058 1821.15L1076.72 1918.62C1036.1 1961.75 955.161 2053.48 942.247 2063.18Z" fill="white"/>
<path d="M3282.82 1865V774.093H3713.21C3795.6 774.093 3865.91 788.83 3924.15 818.305C3982.74 847.424 4027.31 888.795 4057.85 942.417C4088.75 995.684 4104.19 1058.36 4104.19 1130.45C4104.19 1202.89 4088.57 1265.22 4057.32 1317.42C4026.07 1369.26 3980.79 1409.04 3921.49 1436.73C3862.54 1464.43 3791.16 1478.28 3707.35 1478.28H3419.18V1292.91H3670.07C3714.1 1292.91 3750.68 1286.88 3779.8 1274.8C3808.92 1262.73 3830.58 1244.62 3844.78 1220.47C3859.34 1196.32 3866.62 1166.32 3866.62 1130.45C3866.62 1094.23 3859.34 1063.69 3844.78 1038.83C3830.58 1013.97 3808.74 995.151 3779.26 982.367C3750.14 969.228 3713.39 962.658 3669 962.658H3513.46V1865H3282.82ZM3871.95 1368.55L4143.08 1865H3888.46L3623.19 1368.55H3871.95Z" fill="#F2F2F2"/>
<path d="M4562.61 1880.98C4478.45 1880.98 4406.01 1863.94 4345.29 1829.85C4284.92 1795.4 4238.4 1746.75 4205.73 1683.89C4173.06 1620.68 4156.72 1545.93 4156.72 1459.64C4156.72 1375.48 4173.06 1301.61 4205.73 1238.05C4238.4 1174.48 4284.38 1124.95 4343.69 1089.43C4403.35 1053.92 4473.3 1036.17 4553.56 1036.17C4607.54 1036.17 4657.79 1044.87 4704.31 1062.27C4751.18 1079.31 4792.02 1105.06 4826.82 1139.5C4861.98 1173.95 4889.32 1217.27 4908.85 1269.48C4928.38 1321.32 4938.15 1382.05 4938.15 1451.65V1513.97H4247.27V1373.35H4724.55C4724.55 1340.68 4717.44 1311.73 4703.24 1286.52C4689.04 1261.31 4669.33 1241.6 4644.11 1227.4C4619.26 1212.84 4590.31 1205.56 4557.29 1205.56C4522.84 1205.56 4492.3 1213.55 4465.67 1229.53C4439.39 1245.15 4418.79 1266.28 4403.88 1292.91C4388.96 1319.19 4381.33 1348.49 4380.97 1380.8V1514.5C4380.97 1554.99 4388.43 1589.97 4403.35 1619.44C4418.62 1648.92 4440.1 1671.64 4467.8 1687.62C4495.5 1703.6 4528.35 1711.59 4566.34 1711.59C4591.56 1711.59 4614.64 1708.04 4635.59 1700.94C4656.54 1693.84 4674.48 1683.18 4689.39 1668.98C4704.3 1654.77 4715.67 1637.37 4723.48 1616.78L4933.35 1630.63C4922.7 1681.05 4900.86 1725.09 4867.83 1762.73C4835.16 1800.02 4792.91 1829.14 4741.06 1850.09C4689.57 1870.68 4630.09 1880.98 4562.61 1880.98Z" fill="#F2F2F2"/>
<path d="M5461.42 1046.82V1217.27H4968.7V1046.82H5461.42ZM5080.56 850.797H5307.48V1613.58C5307.48 1634.53 5310.68 1650.87 5317.07 1662.59C5323.46 1673.95 5332.34 1681.94 5343.7 1686.56C5355.42 1691.17 5368.91 1693.48 5384.18 1693.48C5394.84 1693.48 5405.49 1692.59 5416.14 1690.82C5426.8 1688.69 5434.97 1687.09 5440.65 1686.02L5476.34 1854.88C5464.97 1858.43 5448.99 1862.52 5428.4 1867.13C5407.8 1872.1 5382.76 1875.12 5353.29 1876.19C5298.6 1878.32 5250.66 1871.04 5209.47 1854.35C5168.63 1837.66 5136.85 1811.73 5114.12 1776.58C5091.39 1741.42 5080.21 1697.03 5080.56 1643.41V850.797Z" fill="#F2F2F2"/>
<path d="M5549.24 1865V1046.82H5769.23V1189.58H5777.75C5792.67 1138.79 5817.7 1100.44 5852.86 1074.52C5888.02 1048.24 5928.5 1035.1 5974.31 1035.1C5985.67 1035.1 5997.92 1035.81 6011.06 1037.23C6024.2 1038.65 6035.74 1040.61 6045.69 1043.09V1244.44C6035.03 1241.24 6020.3 1238.4 6001.47 1235.92C5982.65 1233.43 5965.43 1232.19 5949.81 1232.19C5916.42 1232.19 5886.6 1239.47 5860.32 1254.03C5834.39 1268.23 5813.8 1288.12 5798.53 1313.69C5783.61 1339.26 5776.16 1368.73 5776.16 1402.11V1865H5549.24Z" fill="#F2F2F2"/>
<path d="M6437.79 1880.98C6353.63 1880.98 6281.19 1863.94 6220.46 1829.85C6160.09 1795.4 6113.57 1746.75 6080.9 1683.89C6048.23 1620.68 6031.9 1545.93 6031.9 1459.64C6031.9 1375.48 6048.23 1301.61 6080.9 1238.05C6113.57 1174.48 6159.56 1124.95 6218.86 1089.43C6278.52 1053.92 6348.48 1036.17 6428.73 1036.17C6482.71 1036.17 6532.96 1044.87 6579.48 1062.27C6626.36 1079.31 6667.19 1105.06 6702 1139.5C6737.15 1173.95 6764.5 1217.27 6784.03 1269.48C6803.56 1321.32 6813.32 1382.05 6813.32 1451.65V1513.97H6122.45V1373.35H6599.72C6599.72 1340.68 6592.62 1311.73 6578.42 1286.52C6564.21 1261.31 6544.5 1241.6 6519.29 1227.4C6494.43 1212.84 6465.49 1205.56 6432.46 1205.56C6398.02 1205.56 6367.48 1213.55 6340.84 1229.53C6314.57 1245.15 6293.97 1266.28 6279.05 1292.91C6264.14 1319.19 6256.51 1348.49 6256.15 1380.8V1514.5C6256.15 1554.99 6263.61 1589.97 6278.52 1619.44C6293.79 1648.92 6315.28 1671.64 6342.98 1687.62C6370.67 1703.6 6403.52 1711.59 6441.52 1711.59C6466.73 1711.59 6489.81 1708.04 6510.77 1700.94C6531.72 1693.84 6549.65 1683.18 6564.57 1668.98C6579.48 1654.77 6590.84 1637.37 6598.66 1616.78L6808.53 1630.63C6797.88 1681.05 6776.04 1725.09 6743.01 1762.73C6710.34 1800.02 6668.08 1829.14 6616.23 1850.09C6564.74 1870.68 6505.26 1880.98 6437.79 1880.98Z" fill="#F2F2F2"/>
<path d="M7274.27 1880.98C7190.11 1880.98 7117.67 1863.94 7056.95 1829.85C6996.58 1795.4 6950.06 1746.75 6917.39 1683.89C6884.72 1620.68 6868.38 1545.93 6868.38 1459.64C6868.38 1375.48 6884.72 1301.61 6917.39 1238.05C6950.06 1174.48 6996.04 1124.95 7055.35 1089.43C7115.01 1053.92 7184.96 1036.17 7265.22 1036.17C7319.2 1036.17 7369.45 1044.87 7415.97 1062.27C7462.84 1079.31 7503.68 1105.06 7538.48 1139.5C7573.64 1173.95 7600.98 1217.27 7620.51 1269.48C7640.04 1321.32 7649.81 1382.05 7649.81 1451.65V1513.97H6958.93V1373.35H7436.21C7436.21 1340.68 7429.1 1311.73 7414.9 1286.52C7400.7 1261.31 7380.99 1241.6 7355.77 1227.4C7330.92 1212.84 7301.97 1205.56 7268.95 1205.56C7234.5 1205.56 7203.96 1213.55 7177.33 1229.53C7151.05 1245.15 7130.45 1266.28 7115.54 1292.91C7100.62 1319.19 7092.99 1348.49 7092.63 1380.8V1514.5C7092.63 1554.99 7100.09 1589.97 7115.01 1619.44C7130.28 1648.92 7151.76 1671.64 7179.46 1687.62C7207.16 1703.6 7240.01 1711.59 7278 1711.59C7303.22 1711.59 7326.3 1708.04 7347.25 1700.94C7368.2 1693.84 7386.14 1683.18 7401.05 1668.98C7415.97 1654.77 7427.33 1637.37 7435.14 1616.78L7645.01 1630.63C7634.36 1681.05 7612.52 1725.09 7579.5 1762.73C7546.82 1800.02 7504.57 1829.14 7452.72 1850.09C7401.23 1870.68 7341.75 1880.98 7274.27 1880.98Z" fill="#F2F2F2"/>
<path d="M8478.7 1046.82L8192.66 1865H7936.98L7650.93 1046.82H7890.63L8060.55 1632.22H8069.08L8238.47 1046.82H8478.7Z" fill="#F2F2F2"/>
<path d="M8881.33 1880.98C8797.16 1880.98 8724.72 1863.94 8664 1829.85C8603.63 1795.4 8557.11 1746.75 8524.44 1683.89C8491.77 1620.68 8475.43 1545.93 8475.43 1459.64C8475.43 1375.48 8491.77 1301.61 8524.44 1238.05C8557.11 1174.48 8603.09 1124.95 8662.4 1089.43C8722.06 1053.92 8792.01 1036.17 8872.27 1036.17C8926.25 1036.17 8976.5 1044.87 9023.02 1062.27C9069.89 1079.31 9110.73 1105.06 9145.53 1139.5C9180.69 1173.95 9208.03 1217.27 9227.56 1269.48C9247.09 1321.32 9256.86 1382.05 9256.86 1451.65V1513.97H8565.98V1373.35H9043.26C9043.26 1340.68 9036.15 1311.73 9021.95 1286.52C9007.75 1261.31 8988.04 1241.6 8962.82 1227.4C8937.97 1212.84 8909.02 1205.56 8876 1205.56C8841.55 1205.56 8811.01 1213.55 8784.38 1229.53C8758.1 1245.15 8737.5 1266.28 8722.59 1292.91C8707.68 1319.19 8700.04 1348.49 8699.68 1380.8V1514.5C8699.68 1554.99 8707.14 1589.97 8722.06 1619.44C8737.33 1648.92 8758.81 1671.64 8786.51 1687.62C8814.21 1703.6 8847.06 1711.59 8885.05 1711.59C8910.27 1711.59 8933.35 1708.04 8954.3 1700.94C8975.25 1693.84 8993.19 1683.18 9008.1 1668.98C9023.02 1654.77 9034.38 1637.37 9042.19 1616.78L9252.06 1630.63C9241.41 1681.05 9219.57 1725.09 9186.55 1762.73C9153.88 1800.02 9111.62 1829.14 9059.77 1850.09C9008.28 1870.68 8948.8 1880.98 8881.33 1880.98Z" fill="#F2F2F2"/>
<path d="M9344.94 1865V1046.82H9564.93V1189.58H9573.46C9588.37 1138.79 9613.41 1100.44 9648.56 1074.52C9683.72 1048.24 9724.2 1035.1 9770.01 1035.1C9781.38 1035.1 9793.63 1035.81 9806.77 1037.23C9819.9 1038.65 9831.45 1040.61 9841.39 1043.09V1244.44C9830.74 1241.24 9816 1238.4 9797.18 1235.92C9778.36 1233.43 9761.13 1232.19 9745.51 1232.19C9712.13 1232.19 9682.3 1239.47 9656.02 1254.03C9630.1 1268.23 9609.5 1288.12 9594.23 1313.69C9579.32 1339.26 9571.86 1368.73 9571.86 1402.11V1865H9344.94Z" fill="#F2F2F2"/>
<defs>
<linearGradient id="paint0_linear_3221_11" x1="4920.69" y1="0" x2="4920.69" y2="2628" gradientUnits="userSpaceOnUse">
<stop stop-color="#6999F2"/>
<stop offset="1" stop-color="#216FFF"/>
</linearGradient>
</defs>
</svg>
