<svg width="13080" height="3000" viewBox="0 0 13080 3000" fill="none" xmlns="http://www.w3.org/2000/svg">
<path d="M0 0H13080V3000H0V0Z" fill="black"/>
<path d="M2723.92 2196.51L2620.66 2095.25L2882.41 1766.59L3219.19 1335.6L3392.09 1117.4L3100.93 984.741C3076.91 968.497 3081.72 938.176 3113.53 930.054L3316.45 877.534L3845.34 749.21C3900.36 739.071 3900.17 765.633 3899.98 791.914L3899.97 793.067L3868.75 999.901L3817.72 1318.27L3796.11 1441.72C3788.91 1465.01 3763.09 1478 3736.08 1455.26L3722.87 1437.39L3608.21 1269L3374.08 1514.82L2967.65 1942.57L2723.92 2196.51Z" fill="url(#paint0_linear_3215_15)"/>
<path d="M2679.25 2249.18C2668.44 2257.3 2651.03 2254.06 2643.83 2247.56L2628.22 2228.07L2613.81 2209.66L2158.1 1633.7C2153.77 1628.23 2150.05 1622.09 2150 1615.38C2149.84 1592.59 2176.64 1590.12 2189.38 1601.61L2699.06 2007.15L2813.72 2104.62C2773.1 2147.75 2692.16 2239.48 2679.25 2249.18Z" fill="url(#paint1_linear_3215_15)"/>
<path d="M4473.91 2002C4454.38 2002 4444.61 1991.26 4444.61 1969.77V1193.99C4444.61 1172.51 4454.38 1161.77 4473.91 1161.77H4756.91C4869.8 1161.77 4951.45 1182.86 5001.84 1225.05C5052.62 1267.23 5078.01 1322.9 5078.01 1392.04C5078.01 1452.98 5057.5 1504.15 5016.48 1545.55C4975.86 1586.96 4917.85 1610.79 4842.46 1617.04V1618.21C4882.3 1647.9 4908.67 1670.55 4921.56 1686.18C4934.45 1701.41 4948.91 1722.12 4964.92 1748.29L5097.34 1963.33C5113.36 1989.11 5109.84 2002 5086.8 2002H5020C5001.64 2002 4987.97 1994.38 4978.98 1979.15L4857.11 1769.97C4839.53 1739.89 4814.34 1710.4 4781.52 1681.49C4748.71 1652.59 4707.89 1638.13 4659.06 1638.13H4557.11V1969.77C4557.11 1991.26 4547.34 2002 4527.81 2002H4473.91ZM4557.11 1542.04H4726.45C4802.62 1542.04 4861.21 1532.08 4902.23 1512.16C4943.24 1491.84 4963.75 1449.46 4963.75 1385.01C4963.75 1335.79 4945 1302.39 4907.5 1284.81C4870 1266.84 4819.02 1257.86 4754.57 1257.86H4557.11V1542.04ZM5211.6 1694.38C5211.6 1597.51 5235.82 1520.36 5284.26 1462.94C5332.7 1405.52 5402.03 1376.8 5492.27 1376.8C5567.27 1376.8 5629.38 1403.17 5678.59 1455.91C5728.2 1508.25 5753.01 1592.04 5753.01 1707.27C5753.01 1724.85 5745 1733.64 5728.98 1733.64H5320.59C5327.23 1809.03 5347.54 1861.57 5381.52 1891.26C5415.51 1920.55 5453.98 1935.2 5496.95 1935.2C5542.27 1935.2 5577.03 1927.59 5601.25 1912.35C5625.47 1897.12 5643.24 1882.08 5654.57 1867.23C5667.07 1850.83 5679.18 1847.7 5690.9 1857.86L5725.47 1887.74C5734.45 1895.55 5734.45 1906.3 5725.47 1919.97C5718.05 1931.3 5696.76 1949.46 5661.6 1974.46C5626.84 1999.46 5571.95 2011.96 5496.95 2011.96C5399.3 2011.96 5327.23 1983.25 5280.74 1925.83C5234.65 1868.41 5211.6 1791.26 5211.6 1694.38ZM5318.24 1657.47H5649.3C5647.73 1602.78 5633.67 1554.93 5607.11 1513.91C5580.55 1472.51 5541.48 1451.8 5489.92 1451.8C5444.61 1451.8 5406.13 1467.04 5374.49 1497.51C5342.85 1527.59 5324.1 1580.91 5318.24 1657.47ZM5858.48 1464.11C5840.9 1464.11 5832.11 1457.27 5832.11 1443.6V1407.27C5832.11 1393.6 5840.9 1386.77 5858.48 1386.77H5927.62V1334.03C5927.62 1326.22 5929.57 1318.8 5933.48 1311.77L5974.49 1237.35C5981.91 1223.68 5987.97 1216.84 5992.66 1216.84H6013.16C6024.88 1216.84 6030.74 1223.68 6030.74 1237.35V1386.77H6155.55C6173.12 1386.77 6181.91 1393.6 6181.91 1407.27V1443.6C6181.91 1457.27 6173.12 1464.11 6155.55 1464.11H6030.74V1837.35C6030.74 1878.37 6036.8 1905.12 6048.91 1917.62C6061.41 1929.73 6076.25 1935.79 6093.44 1935.79C6106.72 1935.79 6122.54 1931.88 6140.9 1924.07C6159.65 1916.26 6172.54 1909.62 6179.57 1904.15C6186.6 1898.68 6192.07 1900.44 6195.98 1909.42L6215.31 1954.54C6218.44 1962.35 6216.09 1968.6 6208.28 1973.29C6193.05 1982.27 6170.78 1991.06 6141.48 1999.66C6112.19 2007.86 6082.89 2011.96 6053.59 2011.96C6012.97 2011.96 5981.72 1997.31 5959.84 1968.02C5938.36 1938.72 5927.62 1897.31 5927.62 1843.8V1464.11H5858.48ZM6358.87 2002C6341.29 2002 6332.5 1993.21 6332.5 1975.63V1413.13C6332.5 1395.55 6341.29 1386.77 6358.87 1386.77H6408.09C6425.66 1386.77 6434.45 1395.55 6434.45 1413.13V1483.45H6436.8C6455.55 1448.29 6477.62 1421.73 6503.01 1403.76C6528.4 1385.79 6560.04 1376.8 6597.93 1376.8C6622.93 1376.8 6640.51 1378.95 6650.66 1383.25C6659.65 1386.77 6662.97 1392.62 6660.62 1400.83L6647.15 1448.88C6645.2 1455.91 6640.12 1458.64 6631.91 1457.08C6618.24 1454.34 6605.35 1452.98 6593.24 1452.98C6547.54 1452.98 6509.84 1473.68 6480.16 1515.09C6450.47 1556.1 6435.62 1612.16 6435.62 1683.25V1975.63C6435.62 1993.21 6426.84 2002 6409.26 2002H6358.87ZM6722.15 1694.38C6722.15 1597.51 6746.37 1520.36 6794.8 1462.94C6843.24 1405.52 6912.58 1376.8 7002.81 1376.8C7077.81 1376.8 7139.92 1403.17 7189.14 1455.91C7238.75 1508.25 7263.55 1592.04 7263.55 1707.27C7263.55 1724.85 7255.55 1733.64 7239.53 1733.64H6831.13C6837.77 1809.03 6858.09 1861.57 6892.07 1891.26C6926.05 1920.55 6964.53 1935.2 7007.5 1935.2C7052.81 1935.2 7087.58 1927.59 7111.8 1912.35C7136.02 1897.12 7153.79 1882.08 7165.12 1867.23C7177.62 1850.83 7189.73 1847.7 7201.45 1857.86L7236.02 1887.74C7245 1895.55 7245 1906.3 7236.02 1919.97C7228.59 1931.3 7207.3 1949.46 7172.15 1974.46C7137.38 1999.46 7082.5 2011.96 7007.5 2011.96C6909.84 2011.96 6837.77 1983.25 6791.29 1925.83C6745.2 1868.41 6722.15 1791.26 6722.15 1694.38ZM6828.79 1657.47H7159.84C7158.28 1602.78 7144.22 1554.93 7117.66 1513.91C7091.09 1472.51 7052.03 1451.8 7000.47 1451.8C6955.16 1451.8 6916.68 1467.04 6885.04 1497.51C6853.4 1527.59 6834.65 1580.91 6828.79 1657.47ZM7365.51 1694.38C7365.51 1597.51 7389.73 1520.36 7438.16 1462.94C7486.6 1405.52 7555.94 1376.8 7646.17 1376.8C7721.17 1376.8 7783.28 1403.17 7832.5 1455.91C7882.11 1508.25 7906.91 1592.04 7906.91 1707.27C7906.91 1724.85 7898.91 1733.64 7882.89 1733.64H7474.49C7481.13 1809.03 7501.45 1861.57 7535.43 1891.26C7569.41 1920.55 7607.89 1935.2 7650.86 1935.2C7696.17 1935.2 7730.94 1927.59 7755.16 1912.35C7779.38 1897.12 7797.15 1882.08 7808.48 1867.23C7820.98 1850.83 7833.09 1847.7 7844.8 1857.86L7879.38 1887.74C7888.36 1895.55 7888.36 1906.3 7879.38 1919.97C7871.95 1931.3 7850.66 1949.46 7815.51 1974.46C7780.74 1999.46 7725.86 2011.96 7650.86 2011.96C7553.2 2011.96 7481.13 1983.25 7434.65 1925.83C7388.55 1868.41 7365.51 1791.26 7365.51 1694.38ZM7472.15 1657.47H7803.2C7801.64 1602.78 7787.58 1554.93 7761.02 1513.91C7734.45 1472.51 7695.39 1451.8 7643.83 1451.8C7598.52 1451.8 7560.04 1467.04 7528.4 1497.51C7496.76 1527.59 7478.01 1580.91 7472.15 1657.47ZM7995.39 1415.48C7988.75 1396.34 7994.02 1386.77 8011.21 1386.77H8075.08C8087.58 1386.77 8096.37 1394.38 8101.45 1409.62L8225.66 1796.34C8235.82 1827.98 8242.66 1849.85 8246.17 1861.96C8250.08 1873.68 8253.59 1888.33 8256.72 1905.91H8259.06C8262.19 1888.33 8265.51 1873.68 8269.02 1861.96C8272.93 1849.85 8279.96 1827.98 8290.12 1796.34L8414.34 1409.62C8419.41 1394.38 8428.2 1386.77 8440.7 1386.77H8504.57C8521.76 1386.77 8527.03 1396.34 8520.39 1415.48L8328.2 1966.26C8320 1990.09 8309.45 2002 8296.56 2002H8219.22C8206.33 2002 8195.78 1990.09 8187.58 1966.26L7995.39 1415.48ZM8586.6 1694.38C8586.6 1597.51 8610.82 1520.36 8659.26 1462.94C8707.7 1405.52 8777.03 1376.8 8867.27 1376.8C8942.27 1376.8 9004.38 1403.17 9053.59 1455.91C9103.2 1508.25 9128.01 1592.04 9128.01 1707.27C9128.01 1724.85 9120 1733.64 9103.98 1733.64H8695.59C8702.23 1809.03 8722.54 1861.57 8756.52 1891.26C8790.51 1920.55 8828.98 1935.2 8871.95 1935.2C8917.27 1935.2 8952.03 1927.59 8976.25 1912.35C9000.47 1897.12 9018.24 1882.08 9029.57 1867.23C9042.07 1850.83 9054.18 1847.7 9065.9 1857.86L9100.47 1887.74C9109.45 1895.55 9109.45 1906.3 9100.47 1919.97C9093.05 1931.3 9071.76 1949.46 9036.6 1974.46C9001.84 1999.46 8946.95 2011.96 8871.95 2011.96C8774.3 2011.96 8702.23 1983.25 8655.74 1925.83C8609.65 1868.41 8586.6 1791.26 8586.6 1694.38ZM8693.24 1657.47H9024.3C9022.73 1602.78 9008.67 1554.93 8982.11 1513.91C8955.55 1472.51 8916.48 1451.8 8864.92 1451.8C8819.61 1451.8 8781.13 1467.04 8749.49 1497.51C8717.85 1527.59 8699.1 1580.91 8693.24 1657.47ZM9289.73 2002C9272.15 2002 9263.36 1993.21 9263.36 1975.63V1413.13C9263.36 1395.55 9272.15 1386.77 9289.73 1386.77H9338.95C9356.52 1386.77 9365.31 1395.55 9365.31 1413.13V1483.45H9367.66C9386.41 1448.29 9408.48 1421.73 9433.87 1403.76C9459.26 1385.79 9490.9 1376.8 9528.79 1376.8C9553.79 1376.8 9571.37 1378.95 9581.52 1383.25C9590.51 1386.77 9593.83 1392.62 9591.48 1400.83L9578.01 1448.88C9576.05 1455.91 9570.98 1458.64 9562.77 1457.08C9549.1 1454.34 9536.21 1452.98 9524.1 1452.98C9478.4 1452.98 9440.7 1473.68 9411.02 1515.09C9381.33 1556.1 9366.48 1612.16 9366.48 1683.25V1975.63C9366.48 1993.21 9357.7 2002 9340.12 2002H9289.73Z" fill="#F2F2F2"/>
<defs>
<linearGradient id="paint0_linear_3215_15" x1="3025" y1="0" x2="3025" y2="3000" gradientUnits="userSpaceOnUse">
<stop stop-color="#6999F2"/>
<stop offset="1" stop-color="#1366FF"/>
</linearGradient>
<linearGradient id="paint1_linear_3215_15" x1="3025" y1="0" x2="3025" y2="3000" gradientUnits="userSpaceOnUse">
<stop stop-color="#6999F2"/>
<stop offset="1" stop-color="#1366FF"/>
</linearGradient>
</defs>
</svg>
